<svg id="Calque_1" data-name="Calque 1" xmlns="http://www.w3.org/2000/svg" viewBox="0 0 50 50"><defs><style>.cls-1{opacity:0.1;}.cls-2{fill:#4cbab5;}.cls-3{fill:#3bb7af;}</style></defs><title>load</title><g class="cls-1"><path class="cls-2" d="M960,565a25,25,0,1,1,25-25A25,25,0,0,1,960,565Zm0-44a19,19,0,1,0,19,19A19,19,0,0,0,960,521Z" transform="translate(-935 -515)"/></g><path class="cls-3" d="M976.86,531.27a19,19,0,1,1-31.06-3.84c-1.55-1.29-3.12-2.53-4.71-3.75a25,25,0,1,0,41.23,5.09C980.49,529.63,978.68,530.47,976.86,531.27Z" transform="translate(-935 -515)"/><path class="cls-3" d="M941.09,523.68c1.58,1.21,3.15,2.46,4.71,3.75" transform="translate(-935 -515)"/><path class="cls-3" d="M976.86,531.27c1.82-.8,3.64-1.64,5.46-2.51" transform="translate(-935 -515)"/></svg>