<svg id="titre_v" data-name="titre v" xmlns="http://www.w3.org/2000/svg" viewBox="0 0 747.29 127.08"><defs><style>.cls-1{fill:#fff;}.cls-2{fill:#12100b;}</style></defs><title>sp_text</title><g id="conquest"><path class="cls-1" d="M812.68,708c-1.07-2.89-.83-8.09-4-9.21a87.64,87.64,0,0,0-14.1-3.62c-5-.86-9.94-1.68-15-1.24-4.34.37-8.32,1.67-12.46,2.78.32.88.61,1.77.92,2.63.91,2.57-1,5.47-3.49,6.15A5.09,5.09,0,0,1,758.3,702c-.31-.87-.57-1.76-.91-2.62.09.24-1-1.16-.14-.56a58.11,58.11,0,0,1-4.79-4,4.15,4.15,0,0,1-1.26-2.1c-5-.43-10.22-.83-15.21.06-3.24.58-8.1.33-10.79,2.46a5.66,5.66,0,0,1-.78.51,4.53,4.53,0,0,1-4,3.33c.94,2.42.12,5.61-2.5,6.67a5.43,5.43,0,0,1-.68,7,5.33,5.33,0,0,1-1.57,6.7,4.69,4.69,0,0,1,.23,1.41,4.61,4.61,0,0,1-1.31,3.3c1.16,2.24,1.3,4.78.72,7.87-.33,1.73,1.44,5.14,2,6.75a18,18,0,0,0,3.79,6.13,5,5,0,0,1,1.2,4c4.62,1.26,6,8.69.42,9.53-2.06.31-4.16.59-6.26.84-.21.56-.44,1.12-.65,1.68q-.2.51-.37,1l0,.17a9.25,9.25,0,0,1-.93,4.71,5.22,5.22,0,0,1-1.5,4,65.93,65.93,0,0,1,4.31,10c1.44,4.22,3.76,7.72,4.62,11.95a5.54,5.54,0,0,1,4.05,3.08,6.44,6.44,0,0,1,1.72.13c2,.45,3.74,1.69,5.72,2.29,3.36,1,6.77,1.68,10.22,2.36,2.43.48,4.83,1.1,7.23,1.74a3.93,3.93,0,0,1,1.43-2.75c2.86-2.24,8.69-5.34,9.21-9a3.46,3.46,0,0,1,.27-.89,4.47,4.47,0,0,1-.68-4.18,27.07,27.07,0,0,0,.65-6.5c.11-2.35.7-4.64.67-7a4.52,4.52,0,0,1,3.85-4.73q.1-1.69.17-3.37a5.24,5.24,0,0,1-1.06-1,30.73,30.73,0,0,1-5-9.13,29.94,29.94,0,0,0-4.33-7,3.87,3.87,0,0,1-.75-2.61,18.45,18.45,0,0,1-3-1.18c-5.75-2.93-.69-11.56,5-8.63-1.11-.56,2.52.5,2.72.57a7.15,7.15,0,0,0,3.33.28c1.21-.14,1.9-1.42,2.85-2.56-3.88-1.36-4.11-7.24-.68-9.13-1-3.75,3-8.41,7.27-5.83,3.33,2,7.43,4,7,8.65-.11,1.16-.23,2.31-.4,3.43a4.53,4.53,0,0,1,1.65,3.73c0,3.29-1.36,6.24-2.42,9.22a5.23,5.23,0,0,1,2.5,3.87,66.51,66.51,0,0,1,.67,12.06c-.18,3.13-1.6,5.9-2.1,8.94-.6,3.65.09,7.33-.66,11-.24,1.17-.47,2.31-.73,3.43A5.59,5.59,0,0,1,779.7,787c.22-1.28.09.28.13.61s.1.77.13,1.15a8.69,8.69,0,0,1-.1,2.21,5.1,5.1,0,0,1,1.13,2c.59,1.86,5.13,3.68,6.82,4.21a65.87,65.87,0,0,1,6.88,2.46,3.94,3.94,0,0,1,2.25,2.55,9.33,9.33,0,0,0,1.73-.39,4.37,4.37,0,0,1,3.79.32,15.7,15.7,0,0,1,2.08-3c1-1.08,2.35-1.94,2.66-3.48a39.44,39.44,0,0,0,.69-9c-.14-8.19.29-16.27-1.06-24.41a5.18,5.18,0,0,1,.38-3.06,5.44,5.44,0,0,1-.22-1.36c-.21-5.58-.33-11.17-.64-16.75-.22-3.89-.85-7.71-.5-11.61a13.45,13.45,0,0,1,4.67-9.51C814.75,716.48,814.44,712.75,812.68,708Z" transform="translate(-70.49 -687.78)"/><path class="cls-1" d="M712.25,795.7c-.09-4.13-3.19-8.31-4.59-12.18a58.33,58.33,0,0,0-3.65-8.24,5.58,5.58,0,0,1-.93.08,4.7,4.7,0,0,1-4.82-4.86,4.76,4.76,0,0,1-1.51-3.48c-.16-5.36-1.31-11.42,3.67-15.09,2.44-1.8,5.85-1.8,8.86-2.12a5.66,5.66,0,0,1,0-4.75,32,32,0,0,1-2.12-5.23,40.33,40.33,0,0,1-1.76-6.74,10.89,10.89,0,0,1,.29-3.72,2.56,2.56,0,0,1,0-.8,5.13,5.13,0,0,1-1.65-3.21H704c-2.71-.23-5-2.1-5-5,0-2.55,2.28-5.23,5-5,.92.08,1.83.2,2.74.33l1.16.16.31,0a5.26,5.26,0,0,1,1.61-4.54c-1.22-2.46-.45-6,2.31-7.09a5.51,5.51,0,0,1-.85-4.19,4.79,4.79,0,0,1-.84-1.34,4.85,4.85,0,0,1-3.46-1.47,5,5,0,0,1-1.46-3.54,4.93,4.93,0,0,1,.09-.87,5.54,5.54,0,0,1-1.42-.06c-4.12-.7-8.07-1.38-12.1-1.83a4.75,4.75,0,0,1-2.5,1.5c-3.77,1-7.36.56-11.19.76-3.19.16-5.25,2-7.63,3.83.2,1.76.17,3.55.4,5.34.35,2.71-2.54,5-5,5-3,0-4.65-2.3-5-5-.2-1.53.25-3.93-.61-5.07a28.67,28.67,0,0,0-2.85-2.64,5.34,5.34,0,0,1-.92-1.17c-2.23-.11-4.47-.19-6.67-.2-3.78,0-7.54.46-11.31.59.16,2.61-1.44,5.35-4.81,5.35a4.75,4.75,0,0,1-4.83-5.23c-6.46.09-12.91.45-19.36,0a5,5,0,0,1-1.9,3.71,5.69,5.69,0,0,1,.31,3.27,5.5,5.5,0,0,1-.94,4.36,5.41,5.41,0,0,1,0,7.36c4.47,1.75,3.84,9.65-1.9,9.65-5,0-6.11-6-3.4-8.68a5.06,5.06,0,0,1-2.76-6,5,5,0,0,1-2.65-5.08,5.67,5.67,0,0,1-.61,0,4.71,4.71,0,0,1-4.83-4.85,4.59,4.59,0,0,1-3.64-3.82c-4.49-1.07-10.87-2.36-15.39-1.5-3.36.65-6.63,1.89-10,2.27a4.92,4.92,0,0,1-2,1,13.82,13.82,0,0,1-4.4.31,5.19,5.19,0,0,1-1.14,2.16,15.05,15.05,0,0,1-4.15,3.22,6,6,0,0,1-.44,3.89c-.56,1.24-.39,3-.75,4.31a9.69,9.69,0,0,0-.7,3.42c.36,2.71-2.55,5-5,5-3,0-4.64-2.3-5-5-.29-2.19.58-4,1.05-6.08.41-1.82.63-3.49,1.18-5.18a8.62,8.62,0,0,1-1.48-.83,8.61,8.61,0,0,0-2.58-1.58,4.41,4.41,0,0,1-3.54-5.05c-4.95-.69-10.07-1.21-14.33,1.29l.28.74c2.27,6.05-7.4,8.64-9.64,2.66-.7-1.87-.95-5-3.23-5.53a69.6,69.6,0,0,0-7.63-1.14c-3.94-.38-7.89-.61-11.83-1a4.7,4.7,0,0,1-4.74,4l-1.28,0a18.31,18.31,0,0,1-.53,5.18,3.87,3.87,0,0,1-1.08,2.1q.71,1.31,1.33,2.68a10.23,10.23,0,0,1,1,5.72c-.18,1.35-.65,2.7-.73,4.05-.39,6.41-10.39,6.44-10,0a21.14,21.14,0,0,1,.55-3.85c.13-.53.44-1.05.19-1.58a19,19,0,0,0-3.27-5.29,4.61,4.61,0,0,1-1.4-3.95,4.44,4.44,0,0,1-1.06-1.15c-.78-.23-1.56-.47-2.33-.74a5.22,5.22,0,0,1-3.67-4.78c-1.43-.29-2.86-.57-4.31-.8-4.07-.67-8.42-1.59-12.57-1.24-3.67.31-7.17,1.4-10.86,1.59a31.37,31.37,0,0,0-2.95,4.33c-3.13,5.27-4,10.57-5,16.53-1.07,6.35-10.71,3.65-9.64-2.66.25-1.49.5-3,.78-4.42a5.15,5.15,0,0,1-1.28-1.47c-2.86-4.86-5.39-9.69-11-11.83a5.25,5.25,0,0,1-2.71-2.33c-9.25-.09-19.09-1.59-27.29,3.77-4.48,2.92-4.16,6.72-6.73,10.89a21.79,21.79,0,0,1-1.74,2.29,5.09,5.09,0,0,1,.46,2.15,36.62,36.62,0,0,1-1.14,8.2,39.65,39.65,0,0,0,.3,6.47c.19,4-1,8-.36,12a29.14,29.14,0,0,1,.45,5.79,4.59,4.59,0,0,1,1.39,4.84c-.87,3.26-.16,7.39-.73,10.85-.39,2.38,0,4.76-.26,7.16a15.64,15.64,0,0,0,0,5.8c1.07,3.94,2.84,7.63,4,11.54a30.86,30.86,0,0,0,2.68,7.13c3.75,6.27,10.9,8.49,17.33,11l2,.81a4.81,4.81,0,0,1,2.8-.82,5.4,5.4,0,0,1,1.41.18,5.53,5.53,0,0,1,.93-.34c1.88-.5,3.48-1.69,5.33-2.33a55.69,55.69,0,0,1,5.75-1.33c3-.71,6.88-1.57,9.21-3.71a5.29,5.29,0,0,1,1.58-1c-.73-1.52-1.38-3.12-2-4.79-2.37-6,7.3-8.58,9.64-2.66.29.73.57,1.49.86,2.25a5.6,5.6,0,0,1,1-.09c3.85,0,5.4,3.57,4.65,6.44.86.39,1.73.74,2.53,1.13,5,2.43,10.13,5.34,15.7,6.3,3.94.68,11.41,1.67,14.57-1.55s3.55-8,5.4-11.85c2.78-5.76,11.28-.81,8.69,4.92.92,1.77,1.89,3.68,3.5,4.08a48.55,48.55,0,0,0,7.63,1.27c5.62.47,11.26.49,16.87,1a5.23,5.23,0,0,1,.2-.49c-4.51,0-5.83-5-3.94-7.92-2.9-2.64-1.82-8.82,3.25-8.82,4.56,0,5.89,5,4,7.93a5.44,5.44,0,0,1,1.05,6.2,4.61,4.61,0,0,1,4.67,3.87,70.52,70.52,0,0,1,11.23.95c3.39.67,6.76.4,10.19.27,1.72-.07,3.43.06,5.14.13-1.86-2.55-1.08-6.93,2.35-7.93a5.43,5.43,0,0,1-.14-7.14c-4.47-1.74-3.85-9.66,1.89-9.66,4.88,0,6.06,5.72,3.56,8.51a4.89,4.89,0,0,1,2.92,4.92,4.57,4.57,0,0,1,4.37,3.75,5.55,5.55,0,0,1,1.07-.1,4.54,4.54,0,0,1,4.31,2.63,5.52,5.52,0,0,1,1.19-.13,4.71,4.71,0,0,1,4.83,4.85,48.81,48.81,0,0,1,14.54,4c3.68,1.81,7.12,4,11.08,5.19l1.32.36a4.6,4.6,0,0,1,1.52-3c2-1.89,2.74-4.76,5-6.51.75-.59,1.52-1.16,2.29-1.73a5.58,5.58,0,0,1-.65-4.56c-4.85-1.39-4.43-9.56,1.25-9.78a5.58,5.58,0,0,1-.67-4.38c-3.17-2.53-2.16-9,3-9,3.85,0,5.4,3.56,4.65,6.43a5.33,5.33,0,0,1,1.52,5.72c3.24.27,4.65,3.19,4.27,5.81a4.58,4.58,0,0,1,4.31,3.83c4.66.67,8.91,2.93,13.55,3.73a108.35,108.35,0,0,0,17.2,1.3,4.61,4.61,0,0,1,4.72-3.89,5.51,5.51,0,0,1,1.2.13,4.55,4.55,0,0,1,4.43-3.21,5.3,5.3,0,0,1,1.13-3.38c-2.93-1.68-3.12-6.33-.55-8.38-2-2.92-.64-8,4-8,5.19,0,6.2,6.47,3,9a5.52,5.52,0,0,1-.27,6.35c2.37,1.35,2.94,4.63,1.74,6.93a4.71,4.71,0,0,1,.81,1.23h.17a4.54,4.54,0,0,1,4.3,2.61,4.64,4.64,0,0,1,4.24,4.39c2.63.4,5.32,1,7.9.81,3.46-.28,6.93-1.34,10.33-2a51.88,51.88,0,0,0,10-3.26c.5-.21,1.41-.46,2.41-.75A5.36,5.36,0,0,1,712.25,795.7Zm-295.5-39.08c-3.93,0-5.46-3.7-4.6-6.6a5.11,5.11,0,0,1-.61-1.39,5.6,5.6,0,0,1-.87.08,5.06,5.06,0,0,1-2.17-.46,4.83,4.83,0,0,1-2.75.79,4.9,4.9,0,0,1-2.58-.68,4.65,4.65,0,0,1-3.33,1.26,5.53,5.53,0,0,1-1.21-.13,4.54,4.54,0,0,1-1.74,2.08,87.43,87.43,0,0,0-1.47,14.21c2.14,2.88.86,8.18-3.83,8.18-5.07,0-6.15-6.18-3.25-8.82a5.4,5.4,0,0,1,.88-7.25,5.34,5.34,0,0,1,1.06-7.62,5.59,5.59,0,0,1-.67-4.45,5.35,5.35,0,0,1-.27-8,5.15,5.15,0,0,1-2-5c-1-2.93.49-6.86,4.53-6.86,3.57,0,5.16,3.07,4.78,5.81a5.64,5.64,0,0,1,.31,1.83,4.43,4.43,0,0,1,3.16,2.77,5.7,5.7,0,0,1,.93-.08,4.53,4.53,0,0,1,4.37,2.77l.38,0a5.06,5.06,0,0,1,2.17.46,4.82,4.82,0,0,1,2.75-.79,5.58,5.58,0,0,1,.79.06,4.65,4.65,0,0,1,4.79-4.31c5.1,0,6.16,6.25,3.19,8.87a5.4,5.4,0,0,1,1.33,5.4C422.63,751.66,421.29,756.62,416.75,756.62Zm28.92-1.17c-6.45,0-6.45-10,0-10S452.12,755.45,445.67,755.45Zm128.25-27.58c-6.45,0-6.45-10,0-10S580.37,727.87,573.92,727.87Z" transform="translate(-70.49 -687.78)"/><path class="cls-2" d="M362.49,721.52a71.83,71.83,0,0,1,.77-11.88,27.24,27.24,0,0,1,1.21-5.17,18.33,18.33,0,0,1,10.67-12.21,37.38,37.38,0,0,1,16.06-3.08,48.73,48.73,0,0,1,7.15.88,16.07,16.07,0,0,1,9.35,5.06L410,698l.11.11,2.86,2.75a23.83,23.83,0,0,1,5.39,8.8h-.11a49.46,49.46,0,0,1,2.64,16.28c0,1-.11,2-.11,2.86v2.86a23.19,23.19,0,0,1-.66,3.41H420a8.17,8.17,0,0,1-6,5.72,29.54,29.54,0,0,1-8.25.66,8.77,8.77,0,0,1-5.39-2.42l-4-4a8.54,8.54,0,0,1-3.52-3.85l-.66-1.76v.44c0,1.65-.22,3.41-.22,5-.22,4.29-.44,8.47-.33,12.87a54.7,54.7,0,0,1-.44,6.49,53.58,53.58,0,0,0-.33,7c0,1-.11,2.09-.11,3.08,0,2.09,0,4,.11,6.05v1.76a10.38,10.38,0,0,0,3-3.19V769a8.47,8.47,0,0,0,.66-1.65c.11-2.31.11-5.94.11-8.14v-2.09a12.69,12.69,0,0,1,.44-4.18,9.3,9.3,0,0,1,5-5.94,15.84,15.84,0,0,1,5.61-1,9.32,9.32,0,0,1,2.09.22c.11,0,.11.11.22.11a9.6,9.6,0,0,1,6.82,4.62l4,3.85a10,10,0,0,1,2.53,4.62,15.94,15.94,0,0,1,.66,3.3l.33,3.08a86.88,86.88,0,0,1,.66,11V777a35.1,35.1,0,0,1-.88,8.47,18.45,18.45,0,0,1-5,8.91,30,30,0,0,1-15.4,8.69h-.11a40,40,0,0,1-8.8,1,38,38,0,0,1-4.18-.22,20.45,20.45,0,0,1-8.47-3.19,19.12,19.12,0,0,1-3.19-2.75l-2.53-2.53a24.24,24.24,0,0,1-7.81-9.13,33.58,33.58,0,0,1-3.3-12.65l-.66-10.34c0-.88-.11-1.76-.11-2.64Zm5.5,38.94c.22,4.18.44,8.47.77,12.65a30.73,30.73,0,0,0,2.86,10.78,18.19,18.19,0,0,0,5.94,6.93,15.53,15.53,0,0,0,6.16,2.31,35.55,35.55,0,0,0,11.33-.66,24.8,24.8,0,0,0,12.87-7.26,13.1,13.1,0,0,0,3.52-6.38,33.84,33.84,0,0,0,.77-7.48,112,112,0,0,0-1-13.53,9.35,9.35,0,0,0-.44-2.42,4.46,4.46,0,0,0-4.07-3.63,3.27,3.27,0,0,0-1.1-.22,7.2,7.2,0,0,0-3.41.55,3.79,3.79,0,0,0-1.87,2.42,17.09,17.09,0,0,0-.22,4.73c0,2.75,0,5.61-.11,8.36a9.79,9.79,0,0,1-1.32,4.18,14,14,0,0,1-10.12,6.93,6.13,6.13,0,0,1-6.49-3.08,8.48,8.48,0,0,1-1.32-3.85,47.51,47.51,0,0,1-.55-6.82c-.11-2.09-.11-4.07-.11-6.16.11-3.63,0-7.15.44-10.78a54,54,0,0,0,.44-5.83c-.11-6.05.33-12.1.55-18a34.21,34.21,0,0,1,1.32-8.91,11.93,11.93,0,0,1,1.87-3.74,5.15,5.15,0,0,1,7.59-.66,8.06,8.06,0,0,1,2.42,3.3c.33,1.1.66,2.31.88,3.41l1.32,8a16.37,16.37,0,0,0,1,3.3,3.16,3.16,0,0,0,2.64,1.87,23.08,23.08,0,0,0,6.71-.55,3.23,3.23,0,0,0,2.42-2.31,12.86,12.86,0,0,0,.44-2c0-1.76.11-3.63.11-5.5a44.25,44.25,0,0,0-2.31-14.63,17.26,17.26,0,0,0-4.18-6.93,10.05,10.05,0,0,0-6-3.3,44.77,44.77,0,0,0-6.71-.88,30.53,30.53,0,0,0-13.64,2.64,12.17,12.17,0,0,0-7.59,8.58,29.86,29.86,0,0,0-1,4.51,62.19,62.19,0,0,0-.77,11.11Z" transform="translate(-70.49 -687.78)"/><path class="cls-2" d="M419.58,733.07c.11-1.43.11-3.41.11-4.95v-1.87l.33-5.06v-2.42c0-.33.11-.66.11-1a35,35,0,0,1,3.52-15.29c2.75-5.61,7.15-10.12,13.31-12.1a26.19,26.19,0,0,1,7.15-1.1,39.24,39.24,0,0,1,9.46.77,23.05,23.05,0,0,1,12.87,8.36l3.19,3.19a22.68,22.68,0,0,1,4.84,7.26l-.11-.11A39.31,39.31,0,0,1,477.11,719c.55,5.5,1.21,11.44,1.54,16.94.44,6.38.77,13.53.88,19.91,0,1.65.11,3.08.22,4.73l.33,5.5c0,2.42,0,5.28-.11,7.7-.11,2.09-.33,4.51-.55,6.6v.55a29.9,29.9,0,0,1-2.86,9.9h.11a24,24,0,0,1-16.17,13.42,30,30,0,0,1-7,.77,31.72,31.72,0,0,1-6.49-.66,7,7,0,0,1-2.75-.77,33.14,33.14,0,0,1-10.12-6.71l-2.86-2.75-.11-.11a26.15,26.15,0,0,1-9.9-16.17,60.57,60.57,0,0,1-1.1-8.69c-.33-4-.55-8.14-.77-12.1-.11-1.1-.11-2.86-.11-4V742.31A82.43,82.43,0,0,1,419.58,733.07Zm5.17,16.61c.11,2.2,0,4.51.11,6.82.22,4.07.44,8.14.77,12.21a64.89,64.89,0,0,0,1,7.92c1.43,8.25,6.71,13.31,14.08,16.61a8.27,8.27,0,0,0,1.76.55,26.22,26.22,0,0,0,11.33-.11,18.8,18.8,0,0,0,12.65-10.56,24.34,24.34,0,0,0,2.31-8.25c.22-2.31.44-4.51.55-6.82s.11-5,.11-7.37c-.11-3.52-.44-6.93-.55-10.34-.11-6.49-.44-13.09-.88-19.58-.33-5.5-.88-11.11-1.43-16.61a29.89,29.89,0,0,0-2.31-8.69c-2.31-5.28-6.16-8.8-11.88-10a34.87,34.87,0,0,0-8.25-.66,15,15,0,0,0-5.39.88c-4.73,1.54-7.92,4.84-10.12,9.24a29.06,29.06,0,0,0-3,12.87c0,1.32-.11,2.53-.11,3.74l-.33,4.84c0,2.42.11,4.73-.11,7-.55,4.51-.22,8.91-.33,13.42Zm27.17,4.51c.11,4.18.11,8.25.11,12.32a8,8,0,0,1-.77,3.63,11.07,11.07,0,0,1-1.32,2.53,8.75,8.75,0,0,1-1.87,1.54,3.23,3.23,0,0,1-3.3-.11,5.71,5.71,0,0,1-2.09-1.87,12.72,12.72,0,0,1-2-6.93l-.22-6.16c-.11-2-.33-4.07-.55-6-.11-1.1-.22-2.2-.22-3.3-.11-3.74,0-7.48-.22-11.22-.22-5.61.11-11.22.22-16.94a44.59,44.59,0,0,1,.44-5.39,8.07,8.07,0,0,1,.88-2.75,3.94,3.94,0,0,1,2.86-2.2,4.29,4.29,0,0,1,3.41,1.1,5.66,5.66,0,0,1,1.76,2.75,19.6,19.6,0,0,1,1.1,4.18c.44,3.41.77,6.71,1,10.12Zm-6.71-4.07,1.1,1.21v-.11Z" transform="translate(-70.49 -687.78)"/><path class="cls-2" d="M513.41,798.19a9.18,9.18,0,0,1-4.29-5.5l-1-4-.88-5.39c.11,2.2.44,4.4.66,6.6a1.64,1.64,0,0,0,.11.66c0,.33.11,1.54.11,1.87a6.42,6.42,0,0,0,.22,1.43c.44,4.84-2,9.68-8.69,10h-.11l-5.39.44h-2.64a9.51,9.51,0,0,1-5.72-2.53L482,798a8.47,8.47,0,0,1-4.29-6.71,13.33,13.33,0,0,1-.11-2.09v-3c0-1-.11-2-.11-3.08V780c0-2.2-.11-4.4,0-6.27,0-1.65-.11-3.3-.11-4.95v-5.06c-.11-3-.11-7.81-.11-10.56V727.9c0-1-.11-2.09-.11-3.08v-6.16c0-2.09-.11-4.29,0-6.16v-1.76a92.91,92.91,0,0,1,.44-11.22c1-5.72,3.63-8.36,9.13-9.35h-.11a20.78,20.78,0,0,1,4.4-.33c1.43,0,3.41.11,4.84.22a43.7,43.7,0,0,1,8.91,1.76l1.54.55a15.18,15.18,0,0,1,5.39,4.84l3.63,3.52.33.33a4.73,4.73,0,0,1,.22-1.32v-.44a9.76,9.76,0,0,1,5.83-6.82,15.27,15.27,0,0,1,8.25-.88,9.29,9.29,0,0,1,6.6,4.51l3.19,3.3.11.11.44.33a9.82,9.82,0,0,1,2.31,3.74l.44,1.87c.66,3.63,1.32,7.37,1.87,11a49.33,49.33,0,0,1,.77,6.16c.44,6.38.77,13.2,1.1,19.58,0,.77.11,1.76.22,2.86.22,3.19.33,6.93.33,10.23,0,2.42-.11,5.06-.22,7.48,0,1.21-.11,2.2-.11,3.41,0,.77-.11,1.76-.11,2.53-.11,1.54-.22,3-.22,4.4l-.55,19.69a19.9,19.9,0,0,1-.44,4.4c-1,4.4-3.52,7.15-8.47,7.59a13.5,13.5,0,0,1-2.2.22l-10.12-.22h-1.21a10,10,0,0,1-6.38-2.75ZM498.56,724c.55,1.76,1.21,3.41,1.65,5.28l5.28,20.79c.88,3.41,1.87,6.82,2.64,10.23,2,9,4,18,5.39,27.17.22,1.1.55,2.31.88,3.41a4.63,4.63,0,0,0,4.29,3.19h.66l10.12.22a10.93,10.93,0,0,0,1.76-.22,4.1,4.1,0,0,0,3.85-3.52,16.78,16.78,0,0,0,.33-3.3l.55-19.8c0-2.2.22-4.51.33-6.82.11-3.63.33-7.26.33-10.89,0-4.4-.33-8.69-.55-13-.33-6.49-.66-12.87-1.1-19.36a48.69,48.69,0,0,0-.66-5.61c-.55-3.63-1.21-7.26-1.87-10.89l-.33-1.43A3.83,3.83,0,0,0,529,697a9.1,9.1,0,0,0-5.39.66,3.58,3.58,0,0,0-2.31,2.53,9.45,9.45,0,0,0-.22,2.53c0,4,.11,7.92.22,11.88.11,2.09.11,4.07.11,6.16.11,3.74.33,7.48.33,11.22,0,4.07-.22,8.14-.44,12.32A23.48,23.48,0,0,1,521,747c-.11.33-.11.77-.66,1-.33.11-.66-.66-.77-1a13,13,0,0,1-.77-2.2l-1.65-6.16L512.42,720c-1.54-5.83-2.86-11.55-4.4-17.27a9.63,9.63,0,0,0-.55-1.65,5.92,5.92,0,0,0-3.19-3.52l-1.65-.66a38.48,38.48,0,0,0-7.26-1.32,30.06,30.06,0,0,0-7.7,0c-2.86.44-4.18,1.76-4.62,4.62a92.31,92.31,0,0,0-.44,12.32c-.11,5.17.11,10.23.11,15.4,0,8.36.11,16.83,0,25.3,0,6.82.22,13.75.22,20.57-.11,5.17.11,10.34.11,15.4a3.4,3.4,0,0,0,.11,1.1,3.5,3.5,0,0,0,3.41,3.41h2l5.28-.44a3.68,3.68,0,0,0,3.85-4.29,9.63,9.63,0,0,0-.22-1.76c0-.77-.22-1.43-.22-2.2a113.74,113.74,0,0,1-.77-12.21c-.11-4.18-.44-8.25-.55-12.32V740c0-3,.33-5.83.11-8.8a21.68,21.68,0,0,1,.33-7c.11-.66.11-1.43.77-1.65C498,722.29,498.34,723.39,498.56,724Zm41.14-24.64c.11,0,.11,0,.11.11Z" transform="translate(-70.49 -687.78)"/><path class="cls-2" d="M557.63,795.22a32.74,32.74,0,0,1-5.39-4.95,24,24,0,0,1-5.83-12.1l-1.76-12.1a26.48,26.48,0,0,1-.22-3.41L544,742c0-.55-.11-1.65-.22-2.75,0-.22-.11-.66-.11-1.1v-.77a45,45,0,0,1,.33-6.71,31.1,31.1,0,0,0,.22-3.19c0-.44.11-.77.11-1.21.33-3.3.55-6.38.66-9.57a29.16,29.16,0,0,1,4-14.41,21.59,21.59,0,0,1,11.44-9.68,39.79,39.79,0,0,1,17.16-2.53,31.54,31.54,0,0,1,7.48,1.65,15.9,15.9,0,0,1,6.93,4.95l1,1.43,3.19,3.08,1.1,1.21a47.65,47.65,0,0,1,3.74,5.28,50.69,50.69,0,0,1,6.16,16.17l1.43,7.26a71.06,71.06,0,0,1,1,10.45l.33,12.65-.33,5.61c-.11,3.63-.44,7.37-.55,10.89-.22,2.42-.66,5.39-1.21,8.36a31.47,31.47,0,0,1-4.84,12.1c-.33.33-.33.77-.55,1.1l.66,1.1,1.87,2.42a17,17,0,0,1,1.54,2.53l-.11-.11c3.08,5.5,2.09,9.35-3.52,12.54a46.29,46.29,0,0,1-5.72,2.86c-4.4,2-7.59,1.65-10.34-1.1l-3.85-3.85a14.49,14.49,0,0,1-3.52-3.41,34.11,34.11,0,0,1-4.73,0,16.94,16.94,0,0,1-7.37-2.2,36.41,36.41,0,0,1-7.7-5.83Zm41.25-59.07a70.3,70.3,0,0,0-.88-9.68l-1.43-7.15a45.57,45.57,0,0,0-5.5-14.52,46.73,46.73,0,0,0-3.41-4.73,10,10,0,0,0-4.51-3.19,29.24,29.24,0,0,0-6.16-1.32,31.71,31.71,0,0,0-14.63,2.2,16.82,16.82,0,0,0-8.58,7.26,22.76,22.76,0,0,0-3.3,11.66c-.11,3.74-.44,7.48-.77,11.22-.11,3-.66,6.05-.55,9.13.11,1.65.33,3.3.33,4.84l.44,20.68c0,1.21.11,2.31.22,3.52l1.65,11.11a18.63,18.63,0,0,0,4.51,9.35,30.65,30.65,0,0,0,8,6.49,12.77,12.77,0,0,0,5.39,1.54,24.91,24.91,0,0,0,5.72-.11,4.66,4.66,0,0,1,5.17,2.31l2,3.19,1.21,1.87c1.54,2.2,3.19,2.64,5.72,1.54q2.64-1.16,5.28-2.64c2.53-1.43,3-3.19,1.54-5.61a9.47,9.47,0,0,0-1.1-1.76l-2-2.64-1-1.65a4,4,0,0,1-.11-4.51l1-1.76a26.17,26.17,0,0,0,4.07-10.12c.44-2.53.88-5.17,1.1-7.81.33-5.06.55-10.12.88-16.39Zm-16.72,26a24.47,24.47,0,0,1-.88,6.93,10.09,10.09,0,0,1-5.28,6.49,6,6,0,0,1-2.75.66,4.42,4.42,0,0,1-4.18-2.31,13,13,0,0,1-1.43-5.72c-.11-2.09-.22-4.18-.44-6.27-.22-4.07-.66-8-.77-12.1-.11-5.17-.11-10.45-.11-15.62,0-3.52.22-7,.44-10.56a21,21,0,0,1,1.54-7.26,6.29,6.29,0,0,1,3.74-3.74,5.64,5.64,0,0,1,6.27,2,10.48,10.48,0,0,1,1.65,3.74,61.51,61.51,0,0,1,1.76,13.42V746C582.27,751.88,582.16,756.94,582.16,762.11Zm-8.91-43.45,1.32,1.43V720Z" transform="translate(-70.49 -687.78)"/><path class="cls-2" d="M634.3,697.32l.77.77c.77-3.41,3.08-6.16,8.91-6.49a65.85,65.85,0,0,1,6.6.11,29.87,29.87,0,0,1,4.51.44,9.79,9.79,0,0,1,6.71,4.07l4.4,4.29a10,10,0,0,1,2.42,4.4,18,18,0,0,1,.55,4.07l.22.11c.88,7.37,1.65,15.18,2,22.55.22,5.06.44,10.34.44,15.4a125.32,125.32,0,0,1-.55,14.52l-.44,2.86a24.07,24.07,0,0,0-.44,3.3l-.33,3.41c-.11,1.65-.33,3.52-.55,5.06a60.86,60.86,0,0,1-3.3,13h-.11c-2.31,6.71-10.34,13.53-17.82,14.52a29.76,29.76,0,0,0-3.63.44l-1.76.22a35.23,35.23,0,0,1-6.16-.66A28.14,28.14,0,0,1,624,796.21l-2.64-2.53a34.14,34.14,0,0,1-6.49-6.71,38.29,38.29,0,0,1-6.6-16.61v.11a75.63,75.63,0,0,1-.88-14.08c0-2.09-.11-4.07-.22-6.16l-.44-9.35c0-2.53-.11-5.17-.22-7.81v-1.21c0-.44.11-.77.11-1.21V722.4c0-1.54.11-2.86,0-4.51-.22-3-.33-6.93-.33-9.9v-2.75c0-.88.11-1.87.11-2.86,0-6.71,3.08-10.78,11.33-10.12,1.21.11,2.2.11,3.19.11.44,0,1,.11,1.54.11H624l3.63.33C630.78,693.47,633.09,695,634.3,697.32Zm8.8,42.24v5.5c.22,8.69-1,17.16-2.31,25.63a14,14,0,0,1-1.54,4.73c-1.21,2.31-3.41,2.53-5.28.77a8.43,8.43,0,0,1-.88-1.21,26.88,26.88,0,0,1-1.1-2.64,27.18,27.18,0,0,1-.77-7.26c-.11-3-.22-6-.22-9.13-.11-4-.22-7.92-.11-11.88.11-3.19.11-6.27,0-9.46-.22-4.95-.22-9.79-.33-14.74v-2.2a112.47,112.47,0,0,1-.33-13.64v-2a3.89,3.89,0,0,0-3.41-3.74l-3.41-.33c-2.09-.11-4.18,0-6.16-.22-4-.33-5.39,1.54-5.39,4.62-.11,5.06-.11,10.12.22,15.18.22,3.63,0,7.26,0,11,0,1.43-.11,2.86-.11,4.4.11,2.64.22,5.28.22,7.81l.44,9.24c.11,2.2.22,4.4.22,6.6a63.79,63.79,0,0,0,.77,13,32.77,32.77,0,0,0,5.61,14.08,23.93,23.93,0,0,0,13.2,9.46,16.87,16.87,0,0,0,4.73.55c1.65-.22,3.3-.55,5.06-.66,5.83-.77,11.88-5.94,13.64-11.11a58.7,58.7,0,0,0,3-11.88c.44-2.86.55-5.61.88-8.36.22-2.09.66-4.18.88-6.27a116.83,116.83,0,0,0,.55-13.86c0-5.06-.22-10.12-.44-15.18-.33-7.37-1.1-14.74-2-22.11a14.88,14.88,0,0,0-.55-3.19,4.26,4.26,0,0,0-4.18-3.52,20.51,20.51,0,0,0-3.74-.33,53.35,53.35,0,0,0-5.94-.11c-3.3.11-4,2.09-4,4.18l.22,2.42.66,5.28c.55,4.84,1.1,9.68,1.54,14.63.22,3.41.33,6.82.44,10.23v5.72Zm26.18-30.47a.11.11,0,0,0,.11.11Z" transform="translate(-70.49 -687.78)"/><path class="cls-2" d="M669.5,743.08c-.11-2.53-.22-4.73-.44-7.26l-.22-4.18v-1.32c0-.44-.11-.88-.11-1.43V702.27a28.06,28.06,0,0,1,.11-3.3c.77-4.18,3.3-7.15,8-7.7a11.37,11.37,0,0,0,2.42-.44l11.11-.66c2-.22,4.62-.22,6.82-.33.44,0,1-.11,1.43-.11,4.29.33,7.37,1.43,9.13,4.4l4.07,4.07c1.43,1.43,2.31,3.74,2.64,7.15.11,1.76.22,4,.22,5.83a14,14,0,0,1-.55,3.74c-1.1,4.29-4,6.6-8.36,7h-3.41l-2,.22c.22,0,.33.11.55.11a10.74,10.74,0,0,1,5.83,4.51l3.74,3.74a8.73,8.73,0,0,1,2.2,3.63,11.64,11.64,0,0,1,.55,2.09c.11,1.21.22,2.64.22,4.29,0,.77-.22,2.75-.33,4.51-.77,4.73-3.41,6.82-7.26,7.92h-.11a18.61,18.61,0,0,1-5.83.66h-.11c0,4.51.11,9.13.22,13.64l.22,6.71h1c4,.22,6.93,1.87,8.47,4.84l3.63,3.63A9.33,9.33,0,0,1,716,788.4c.11,2.31.11,4.51,0,6.71-.55,5.17-3.63,8-8.8,8.69a17,17,0,0,0-2.53.11l-4,.44c-1.54.22-3.74.33-5.17.44-3.19.11-6.82,0-10.12-.11a7.94,7.94,0,0,1-3.08-.55,9.06,9.06,0,0,1-3.52-2.2l-4-4a10.16,10.16,0,0,1-4.4-5.72,8.56,8.56,0,0,1-.44-2.31,31.11,31.11,0,0,1-.11-3.3l-.22-25.41Zm1.21,48.84h.11a.11.11,0,0,1-.11-.11Zm4.51-30.8v.44l.22,25.08a21.31,21.31,0,0,0,.11,2.64,8.82,8.82,0,0,0,.33,1.65,3.91,3.91,0,0,0,2.64,2.75,4.4,4.4,0,0,0,1.65.33c3.3.11,6.49.22,9.68.11s6.16-.66,9.24-.88a11.92,11.92,0,0,1,2-.11c2.53-.33,4.07-1.65,4.29-4a53.3,53.3,0,0,0,0-5.94c-.22-2.31-1.76-3.63-4.18-3.74h-1.54l-5.94-.33c-2.42-.33-3.52-1.32-3.74-3.74-.11-1.54-.22-3.08-.22-4.62l-.33-8.8c-.11-4.84-.22-9.68-.22-14.52a4.09,4.09,0,0,1,.22-2,2.69,2.69,0,0,1,2.2-2.2l2.31-.33a19.31,19.31,0,0,0,5.06-.44c2-.55,3.3-1.54,3.63-3.63a30.05,30.05,0,0,0,0-7.7,2,2,0,0,0-.22-.77,3.91,3.91,0,0,0-3.08-2.86,8.94,8.94,0,0,0-3.41-.22,13.23,13.23,0,0,1-4.18-.11,2.71,2.71,0,0,1-2.09-2.09,13.85,13.85,0,0,1-.44-3c0-1.54,0-3.08.11-4.62a24.94,24.94,0,0,1,.22-2.86,3.19,3.19,0,0,1,3-3c1.54-.22,3-.33,4.4-.44h2.86a4,4,0,0,0,4-3.52,6.89,6.89,0,0,0,.33-2.09c0-1.87-.11-3.74-.22-5.5-.33-3.74-2.09-4.73-5.28-5h-.22c-2.42.11-5,.22-7.48.44l-10.89.66a22.15,22.15,0,0,0-2.64.44,3.4,3.4,0,0,0-3,3.08,17.12,17.12,0,0,0-.11,2.42V726c0,1.87.11,3.74.11,5.61.22,3.74.55,7.48.66,11.22Z" transform="translate(-70.49 -687.78)"/><path class="cls-2" d="M728,798.52a6.63,6.63,0,0,1-.88-.88L724.5,795a17.15,17.15,0,0,1-2.2-1.76,29.17,29.17,0,0,1-9.24-16.5c-.55-2.64-1-5.94-1.32-8.8a18.09,18.09,0,0,1,.22-4.29,10.14,10.14,0,0,1,6.38-7.59,20.69,20.69,0,0,1,7.48-1.32l-3.74-4.84c-1.21-1.54-2.64-3.41-3.85-5.17a20.15,20.15,0,0,1-3.08-6.6,35.12,35.12,0,0,1-1.76-12.87,4.77,4.77,0,0,0,.11-.55l.44-3.19.33-1.87h-.11l.44-3c.22-1.76.44-3.74.77-5.5,0-.33.22-.66.22-1a28.51,28.51,0,0,1,4.18-11.33,16.83,16.83,0,0,1,9-7.37,38,38,0,0,1,13.09-2.31,25.47,25.47,0,0,1,11.66,3.3,20.37,20.37,0,0,1,6.16,5.72l3.19,3.08a22.64,22.64,0,0,1,5,7.59,30.06,30.06,0,0,1,2,10.12l.22,3.85a25.5,25.5,0,0,1-.77,7.37,10.44,10.44,0,0,1-5.39,6.82h-.11a19.42,19.42,0,0,1-9.57,2.2,6.81,6.81,0,0,1-1.54-.11l.88.88a27.8,27.8,0,0,1,3.41,4.29l2.75,4.18,3.74,5.72a39.31,39.31,0,0,1,3.41,7.48,52,52,0,0,1,2.42,9.68,44.63,44.63,0,0,1,.33,5.72,30.19,30.19,0,0,1-1.76,10.67,31.05,31.05,0,0,1-8.8,12.87,19.24,19.24,0,0,1-12.54,4.62A26.48,26.48,0,0,1,728,798.52Zm31.13-84.7a28.9,28.9,0,0,0-1.65-8.58,15.07,15.07,0,0,0-6.6-7.92,19.53,19.53,0,0,0-9.24-2.64,32.09,32.09,0,0,0-11.11,2.09,11.42,11.42,0,0,0-6,5.06,25.55,25.55,0,0,0-3.52,9.24c-.55,3-.88,6.05-1.32,9.13-.22,1.87-.66,3.74-.77,5.61-.44,3.74.55,7.26,1.54,10.78a14.66,14.66,0,0,0,2.31,5q1.82,2.64,3.63,5a191.51,191.51,0,0,1,11.11,15.62,23.71,23.71,0,0,1,2.64,5.28,12.81,12.81,0,0,1,.66,4.51,8.06,8.06,0,0,1-2.86,5.83,3.09,3.09,0,0,1-4.18-.33,10.1,10.1,0,0,1-1.76-3,37.36,37.36,0,0,1-2.31-9.79,9.14,9.14,0,0,0-.33-2.42,2.62,2.62,0,0,0-2.64-2,15.18,15.18,0,0,0-6.6,1.1,3.65,3.65,0,0,0-2.64,3.19,8.18,8.18,0,0,0-.22,2.86c.33,2.75.66,5.5,1.21,8.25A23.89,23.89,0,0,0,726,789.17a21,21,0,0,0,14.85,5.39,14.61,14.61,0,0,0,9.35-3.41,25.71,25.71,0,0,0,7.26-10.78c1.65-4.51,1.65-9.24,1.1-13.86a47,47,0,0,0-2.42-9.57,24.17,24.17,0,0,0-2.53-5.39l-3.74-5.72-2.75-4.18a23.21,23.21,0,0,0-3.41-4,62.58,62.58,0,0,1-4.62-4.73c-4-5-4.95-10.56-3.63-16.61a8.6,8.6,0,0,1,2-3.85c1.76-2,3.85-2,5.61.22a4.06,4.06,0,0,1,.77,1.54,24.66,24.66,0,0,1,.88,2.64,31.23,31.23,0,0,1,.55,6.38,10.68,10.68,0,0,0,.22,2.64c.44,1.87,1.43,2.64,3.41,2.64a15.38,15.38,0,0,0,7.26-1.76,5.14,5.14,0,0,0,2.64-3.52,21.76,21.76,0,0,0,.55-5.94Z" transform="translate(-70.49 -687.78)"/><path class="cls-2" d="M777.85,771.46l.22-8.58V743.3c0-3.3.22-6.93.44-10.12.11-2.64.11-6.38.11-9.24a7.09,7.09,0,0,1-5.06-2.31l-4.18-4.07c-2-1.21-3.3-3.3-4.07-6.16a6.79,6.79,0,0,1-.22-2.2l-.22-8.36c0-3.08,1.43-5.72,4.62-8.14,1.1-.66,4-1,5.72-1a49.8,49.8,0,0,0,5.61.22c1.76,0,3.85,0,5.61.11.22,0,.55.11.77.11h.66c3.3.22,7.15.55,10.45,1l4.84.55,1.76.55a10.24,10.24,0,0,1,6.49,4.62l3.85,3.85a9.14,9.14,0,0,1,2.53,6.38v6.38c-.55,5.06-3,7.7-7.81,8.36a5.39,5.39,0,0,1-1.32.11l.77,6.16a165.06,165.06,0,0,1,.66,18.15c-.11,3.19-.11,6.16-.11,9.35v3c.11,2.86.11,6.82.11,9.68,0,1.65,0,3.63-.11,5.28a56.55,56.55,0,0,0-.33,5.83c0,2.2.11,4.62.33,7,.11,1.54.22,3.52.22,5.17a18.79,18.79,0,0,1-.44,3.08c-1.21,4.62-3.85,6.93-8.36,7.37l-6.82.77a12.59,12.59,0,0,1-5.39-.77,7.88,7.88,0,0,1-2.75-1.76l-3.85-3.85a8.41,8.41,0,0,1-4.07-5.17,12,12,0,0,1-.55-3.63c-.22-2.75-.22-6.38-.22-9.13C777.74,777.51,777.74,774.43,777.85,771.46Zm5.83-8.8-.33,9c-.11,5.83-.22,11.66.11,17.6a6.88,6.88,0,0,0,.33,2.09,3.09,3.09,0,0,0,1.87,2.31,6.26,6.26,0,0,0,2.86.44l6.93-.77a4.1,4.1,0,0,0,3.85-3.41,9.66,9.66,0,0,0,.22-1.87c0-1.65-.11-3.3-.22-4.84a80.64,80.64,0,0,1,0-13.64c.11-1.65.11-3.19.11-4.84,0-3.19,0-6.27-.11-9.46,0-4.29-.11-8.47.11-12.76a155.16,155.16,0,0,0-.66-17.49l-.77-6.38a14.49,14.49,0,0,1,0-3.08,2.65,2.65,0,0,1,2.75-2.31c.88-.11,1.76,0,2.64-.11,2.31-.22,3.52-1.32,3.74-3.63.11-1.87,0-4,0-5.83a4.25,4.25,0,0,0-3.52-4.18l-1.54-.33-4.18-.55a83.5,83.5,0,0,0-11.77-1.1c-3.74-.33-7.59.11-11.44-.33a4.58,4.58,0,0,0-2.86.66,3.55,3.55,0,0,0-1.43,3l.22,8.36a1.88,1.88,0,0,0,.11.77,3.68,3.68,0,0,0,3.63,3.3l4.18.22a23.1,23.1,0,0,1,2.75.22,2.69,2.69,0,0,1,2.53,2.2l.33,2.31v2.42c0,4.29.11,8.58-.11,12.76-.22,3.3-.44,6.6-.44,9.9v19.36Zm24.86-40.15v-.11l1.43,1.43Z" transform="translate(-70.49 -687.78)"/></g><g id="space"><path class="cls-1" d="M337.31,785.79c-1.92-4.81-6.79-6.83-9.06-11.27l-.14,0c-2.84.78-5.16-1-6.15-3.49-2.13-5.43-.8-10.89-.51-16.5.2-4,4.11-5.49,7-4.55,3.82-3.92,7.06-8.66,7.37-14.15a7.46,7.46,0,0,1-.35-1.47c-.5-4-3.93-9.49-8.33-9.67-6.43-.26-6.45-10.26,0-10a16.55,16.55,0,0,1,8.41,2.7l0-.05c1.76-3.78,1.28-10.27,1.2-14.4-.09-4.64-3.34-7.92-6.91-10.51a5.31,5.31,0,0,1-1.45-1.55,4.33,4.33,0,0,1-2.78.49c-6.17-.77-13.28-1.44-19.25.79-4.35,1.63-8.31,4-12.61,5.71a4.94,4.94,0,0,1-.16,4.68,4.8,4.8,0,0,1-1,1.15c5.06,1.29,4.61,9.83-1.35,9.83-5,0-6.12-6-3.38-8.7a4.51,4.51,0,0,1-1.15-.48c-3.53-2.18-6.76-4.84-8.63-8.63a5.68,5.68,0,0,1-.51-3.58,58.7,58.7,0,0,0-24.18-.62c-5.87,1.11-12.7,4.22-14.46,10.35a5.61,5.61,0,0,1-.38,5.19c2.34,2.14,2.09,6.57-.78,8.2a5.18,5.18,0,0,1-2,5.37c2.92,1.9,2.86,6.87-.2,8.63,3.09,1.77,3.13,6.84.1,8.69,3.8,1.43,4,7.27.54,9.12,4.22,1.92,3.51,9.57-2.13,9.57s-6.31-7.33-2.38-9.43c-3.45-1.57-3.6-7-.45-8.88-3.77-1.41-4-7.14-.65-9-3.07-1.75-3.14-6.73-.21-8.63a5.33,5.33,0,0,1-.61-8,4.79,4.79,0,0,1-2.7-4.24,52.46,52.46,0,0,1,.15-6.78,5.3,5.3,0,0,1-1.68-1c-3.11-2.75-5.33-6.58-9.53-7.72A59.3,59.3,0,0,0,201.23,691c-6.68-.1-13.37.1-14.62,7.87a4.39,4.39,0,0,1-1.24,2.54c0,.1.05.2.08.3,2.77,2,2.68,6.76-.29,8.51a5.43,5.43,0,0,1-.52,1.84,5.5,5.5,0,0,1,.8,5.91,5.56,5.56,0,0,1-.51,2.26c1.41,3,0,7.38-4.31,7.38s-5.72-4.41-4.31-7.38a5.66,5.66,0,0,1,0-4.69,13,13,0,0,0-.09-8.58,10.41,10.41,0,0,1-2.67-1.79,24.06,24.06,0,0,1-3.48-4.54,4.33,4.33,0,0,1-.7-2.5,70,70,0,0,0-20.94-5.36c-6.06-.46-14.58-2-19.75,2.12a5.71,5.71,0,0,1-1,.62,5.61,5.61,0,0,1-.38,2.19c3.87,2.15,3.06,9.41-2.43,9.41-4.15,0-5.63-4.14-4.43-7.09a4.46,4.46,0,0,1-1.79-1.88c-4.28-1.53-7.28-4.75-11.58-6.8a28.35,28.35,0,0,0-9-2.61,25.26,25.26,0,0,1-8.24,1.89,3.61,3.61,0,0,1-1,0c-6.09,6.77-11.41,14.08-13,23.35-1.12,6.66-.43,14.48,0,21.22.3,4.48,1.55,8.46,4.48,11.72,6.12.33,6,10-.32,10a5.37,5.37,0,0,1-1.43-.19,4.79,4.79,0,0,1-2.88-.59,5.31,5.31,0,0,1-.62,1.55c-5.81,9.88.4,26.94,8,34.38,5.42,5.29,13.14,9.72,20.9,9.85,1.93,0,3.9.19,5.87.36,0,0,0-.09.06-.13,2.1-3.4,4.34-6.79,7.53-9.26a6,6,0,0,1,4.35-1.38,10.17,10.17,0,0,0-.88-3.56c-2.86-5.75,5.76-10.82,8.63-5a25.07,25.07,0,0,1,2,14.16c6.14,1.17,12.24,3.6,18.45,2.89,1.84-.21,5.44-.73,5.92-3,.75-3.47-.12-7,0-10.46.15-7.24-2.7-14,.42-21,2.36-5.25,8.94-4.11,13.28-5.77a5.16,5.16,0,0,1,1.43-.33c.32-1.77.66-3.56,1-5.43,1-6.36,10.62-3.65,9.64,2.66a54.2,54.2,0,0,1-1.59,8c-.72,2.34-.16,4.69-.12,7.08.08,5.07-1.95,10.4-.43,15.37,1.17,3.84,3.09,8,6.72,10.15s7.86,3.37,11.83,4.72c.7-8,1.92-16,2-24.06a4.86,4.86,0,0,1,.86-2.8,4.75,4.75,0,0,1,4.83-5.2c4.3,0,5.73,4.45,4.29,7.41q0,.28,0,.59c0,2.94-.23,5.87-.49,8.79,2.36,1.32,3,4.54,1.82,6.84,3.73,5.18,10.86,9,17.85,11.13a4.56,4.56,0,0,1,4.56-3.26,4.92,4.92,0,0,1,2.55.66c.67-4.5-2-10.47-2.87-14.33-1.5-6.27,8.15-8.93,9.64-2.66.45,1.89,1,3.86,1.52,5.87,8,2.91,17,7.46,25.62,5.91,4.33-.78,13.76-2.68,15.46-7.53,2.12-6,11.79-3.44,9.64,2.66-.1.3-.23.59-.35.87,8.13,3.4,15.93,7.57,24.43,9.49a4.45,4.45,0,0,1,2.52-1.27,103.44,103.44,0,0,1,12.84-1.26C335.59,795,339.17,790.46,337.31,785.79Zm-212.7-19.13a4.68,4.68,0,0,1-4.82-4.6,5,5,0,0,1-1.5-2.32c-1.19-3.71-.17-7.85-.75-11.75,0-.26-.06-.52-.09-.78a4.62,4.62,0,0,1-2.49-3.09c-5.79-.65-5.58-10,.64-10a4.94,4.94,0,0,1,2.46.61c1.42-4.75,9.65-4.19,9.79,1.64.09,3.42-1,7-.46,10.42a25.27,25.27,0,0,1,.71,6.08c-.12,1.29-.59,2.9-.18,4.17a5.54,5.54,0,0,1,.23,1.06C130.68,760.93,129.5,766.66,124.61,766.66Zm166.5-8.75a4.84,4.84,0,0,1-2.73-.78c-2.33-.27-4.85-2.44-4.52-5,.16-1.23.24-2.47.3-3.71a5.56,5.56,0,0,1-.92.08,4.54,4.54,0,0,1-4.4-2.82,5.26,5.26,0,0,1-5.11.06,5.46,5.46,0,0,1-1.22,1.2c-1.94,1.4-2.93,2.09-3.15,4.7-.12,1.51-.23,3-.4,4.52-.33,2.9-1.6,6-.65,8.89,2.06,6.13-7.6,8.74-9.64,2.66-1.68-5,0-11,.69-16.06a23.85,23.85,0,0,1,2.32-8.39,7.7,7.7,0,0,1,2-2.34,9.77,9.77,0,0,1-3.74-8,5,5,0,0,1,10,0c0,.11,0,.23,0,.34l.24.2a7.57,7.57,0,0,0,.79.44l0,0a19.33,19.33,0,0,0,1.88.55,4.64,4.64,0,0,1,2.74,2l.55,0a4.54,4.54,0,0,1,4.4,2.82,4.9,4.9,0,0,1,2.6-.69,5.32,5.32,0,0,1,1.5.21,23.19,23.19,0,0,1,.55-2.66c1.72-6.21,11.37-3.57,9.64,2.66-.92,3.3-.72,6.73-.83,10.13C297.32,751.37,296.33,757.91,291.11,757.91Z" transform="translate(-70.49 -687.78)"/><path class="cls-2" d="M86.81,797.14a6.72,6.72,0,0,1-.88-.88l-2.64-2.64a17.08,17.08,0,0,1-2.2-1.76,29.17,29.17,0,0,1-9.24-16.5c-.55-2.64-1-5.94-1.32-8.8a18.09,18.09,0,0,1,.22-4.29,10.15,10.15,0,0,1,6.38-7.59,20.69,20.69,0,0,1,7.48-1.32l-3.74-4.84c-1.21-1.54-2.64-3.41-3.85-5.17a20.17,20.17,0,0,1-3.08-6.6,35.1,35.1,0,0,1-1.76-12.87,4.79,4.79,0,0,0,.11-.55l.44-3.19.33-1.87H73l.44-3c.22-1.76.44-3.74.77-5.5,0-.33.22-.66.22-1a28.52,28.52,0,0,1,4.18-11.33,16.84,16.84,0,0,1,9-7.37,38,38,0,0,1,13.09-2.31,25.48,25.48,0,0,1,11.66,3.3,20.37,20.37,0,0,1,6.16,5.72l3.19,3.08a22.64,22.64,0,0,1,4.95,7.59,30,30,0,0,1,2,10.12l.22,3.85a25.49,25.49,0,0,1-.77,7.37,10.44,10.44,0,0,1-5.39,6.82h-.11a19.42,19.42,0,0,1-9.57,2.2,6.81,6.81,0,0,1-1.54-.11l.88.88a27.8,27.8,0,0,1,3.41,4.29l2.75,4.18,3.74,5.72a39.34,39.34,0,0,1,3.41,7.48,52,52,0,0,1,2.42,9.68,44.63,44.63,0,0,1,.33,5.72,30.17,30.17,0,0,1-1.76,10.67,31,31,0,0,1-8.8,12.87,19.24,19.24,0,0,1-12.54,4.62A26.48,26.48,0,0,1,86.81,797.14Zm31.13-84.7a28.93,28.93,0,0,0-1.65-8.58,15.08,15.08,0,0,0-6.6-7.92,19.53,19.53,0,0,0-9.24-2.64,32.08,32.08,0,0,0-11.11,2.09,11.42,11.42,0,0,0-6.05,5.06,25.56,25.56,0,0,0-3.52,9.24c-.55,3-.88,6.05-1.32,9.13-.22,1.87-.66,3.74-.77,5.61-.44,3.74.55,7.26,1.54,10.78a14.65,14.65,0,0,0,2.31,5q1.81,2.64,3.63,5a191.48,191.48,0,0,1,11.11,15.62A23.68,23.68,0,0,1,98.91,766a12.83,12.83,0,0,1,.66,4.51,8.06,8.06,0,0,1-2.86,5.83,3.09,3.09,0,0,1-4.18-.33,10.11,10.11,0,0,1-1.76-3,37.35,37.35,0,0,1-2.31-9.79,9.18,9.18,0,0,0-.33-2.42,2.62,2.62,0,0,0-2.64-2,15.18,15.18,0,0,0-6.6,1.1,3.65,3.65,0,0,0-2.64,3.19A8.19,8.19,0,0,0,76,766c.33,2.75.66,5.5,1.21,8.25a23.89,23.89,0,0,0,7.59,13.53,21,21,0,0,0,14.85,5.39,14.61,14.61,0,0,0,9.35-3.41A25.71,25.71,0,0,0,116.29,779c1.65-4.51,1.65-9.24,1.1-13.86a47,47,0,0,0-2.42-9.57,24.13,24.13,0,0,0-2.53-5.39l-3.74-5.72L106,740.27a23.2,23.2,0,0,0-3.41-4,62.23,62.23,0,0,1-4.62-4.73c-4-5-5-10.56-3.63-16.61a8.6,8.6,0,0,1,2-3.85c1.76-2,3.85-2,5.61.22a4.06,4.06,0,0,1,.77,1.54,24.66,24.66,0,0,1,.88,2.64,31.26,31.26,0,0,1,.55,6.38,10.73,10.73,0,0,0,.22,2.64c.44,1.87,1.43,2.64,3.41,2.64a15.38,15.38,0,0,0,7.26-1.76,5.14,5.14,0,0,0,2.64-3.52,21.75,21.75,0,0,0,.55-5.94Z" transform="translate(-70.49 -687.78)"/><path class="cls-2" d="M126.19,718.16c0-1.1-.11-2.31-.11-3.41v-3.41c0-.77-.11-1.54-.11-2.42v-7.26a16.07,16.07,0,0,1,.33-4.07,9.51,9.51,0,0,1,8.8-7.92c1.76-.11,4.18-.22,5.94-.22a44.13,44.13,0,0,1,6.38.55c3.08.55,6.27,1,9.35,1.32A22.76,22.76,0,0,1,172.28,701l2.64,2.53a23.18,23.18,0,0,1,6.38,11.77,76.5,76.5,0,0,1,1.54,14c0,2,0,4.29.22,6.6h.11a17.75,17.75,0,0,1,.22,2.86V739a20.69,20.69,0,0,1-1.1,7.81l-1.32,4.4a19.5,19.5,0,0,1-6.71,9.46,29.44,29.44,0,0,1-13.31,6l-2.31.33v2.31c.11,4.73.44,9.57.55,14.19.11,3.19.22,5.61.22,8.69a4.91,4.91,0,0,1,0,3.08c-.22,4.73-2.75,7.7-8.58,8.58-1.76.22-3.3.55-5.17.77a7.7,7.7,0,0,1-3.52-.11l.11.11a9.52,9.52,0,0,1-5.61-2.53l-4.18-4.18a9.28,9.28,0,0,1-4.07-7.15c-.22-2.2-.33-5.06-.33-7.37-.11-3.63-.44-7.48-.88-11.55-.22-1.65-.33-3.63-.44-5.28l-.22-2.86-.33-4.07c-.33-4.51-.55-9.35-.55-13.86v-3c0-1,.11-2.09.11-3.08V727.51A93,93,0,0,0,126.19,718.16Zm5.06,10.45c.22,10.23-.44,20.35.44,30.58.33,4,.55,8,1,12s.77,8,.88,12.1c0,2.31.11,4.62.33,7,.11,2,1.32,3.3,3.63,3.63a3.61,3.61,0,0,0,1.54,0l5.72-.77c3-.33,4-2.09,4-4.51a1.22,1.22,0,0,0,0-.88c0-3.19-.11-6.49-.22-9.68l-.55-14.3c0-1.1-.11-2.31,0-3.52,0-2.31.77-3.3,3.08-3.74l3.74-.55a24.78,24.78,0,0,0,10.78-5,14.23,14.23,0,0,0,5-6.93l1.32-4.4a17.65,17.65,0,0,0,.88-6.27c-.22-3.19-.55-6.49-.55-9.68a75.66,75.66,0,0,0-1.43-13.09c-.88-5.94-6-13.09-14.41-13.86-3.3-.33-6.49-.88-9.79-1.43a46.78,46.78,0,0,0-11.11-.22,3.81,3.81,0,0,0-3.74,3.41,14,14,0,0,0-.22,3.08c0,3.19.11,6.38.11,9.68a140.88,140.88,0,0,1-.33,16.72Zm14.19-13.53c.22-2.86,1.65-4.07,4.4-4.18a6.23,6.23,0,0,1,6.27,3.85,20.28,20.28,0,0,1,1.54,6.16c.22,2,.55,3.85.66,5.83a41.24,41.24,0,0,1,.22,6.38,8.69,8.69,0,0,1-7.92,7.81c-2.42.11-3.52-.77-4-3.19-.22-1.43-.33-2.86-.44-4.29l-.66-11c0-1.43-.11-2.86-.22-4.4A26.82,26.82,0,0,1,145.44,715.08Z" transform="translate(-70.49 -687.78)"/><path class="cls-2" d="M178.55,772.83l.44-4.73,1.32-18.26,1-8.36.55-5.17.66-5.06c.11-1.87.33-4.18.55-6.16l.66-6.27v-1.65a9.51,9.51,0,0,1,.11-1.65c.22-4.62.55-9.79.88-14.3a14.19,14.19,0,0,1,.77-4.18,9.49,9.49,0,0,1,7.26-7l1.76-.44a107.93,107.93,0,0,1,11-.55c1.21,0,3.19,0,4.4.11a22.07,22.07,0,0,1,6.6,1.43,11.9,11.9,0,0,1,6.16,4.84l3.63,3.63c-.11,0-.11-.11-.22-.11l.22.11a11.88,11.88,0,0,1,2.42,4.51l.22.11.88,3.74,1.1,6.71c.77,4.73,1.65,10,2.31,14.74.33,2.75.44,5.83.66,8.58l.33,4.18.33,4.62a40.48,40.48,0,0,0,.33,4.07c.22,2.2.55,4.4.88,6.6.44,3.63,1,7.59,1.32,11.22.22,3.85.66,7.59,1.1,11.44l.44,4.07c.33,3.08.44,6.6.66,9.57l.11.11a10.89,10.89,0,0,1-.11,3.41c0,.11-.11.44-.11.55-.66,3.85-2.75,6.16-5.61,7a10.11,10.11,0,0,1-3.63.66h-1.21a27.8,27.8,0,0,1-6.49-.88,10.47,10.47,0,0,1-4.18-2.42l-3.74-3.74a9.79,9.79,0,0,1-4.62-6.27c-.22-1-.55-3-.66-4.07-.44-4-.88-8.69-1.21-12.87l-.22-1.76-.33,4.18c-.11,1.21-.22,2.42-.22,3.08l-.22,10.56c0,.66-.22,2.31-.33,3.74-.77,5.06-3.63,7.7-8.8,7.92H193c-3.52-.33-5.72-1.1-7.15-2.53l-4.07-4.07c-3.19-1.65-4-4.73-4-9.24h.11a1,1,0,0,1-.11-.55Zm4.73,13.86c0,3,.77,4.73,4.62,5.06h4.18a3.6,3.6,0,0,0,3.85-3.41,29,29,0,0,0,.22-3.08l.22-10.56c0-1.1.11-2.31.22-3.52l1.54-15.07.88-8.91a12.76,12.76,0,0,1,.44-2,2.73,2.73,0,0,1,1.87-1.76,7.59,7.59,0,0,1,2.75-.44,16.81,16.81,0,0,1,3.3.33c2.53.55,3.3,1.32,3.85,3.85a2.43,2.43,0,0,1,.11.88l1.32,17.71c.11,1.87.22,3.74.44,5.5.44,5.28.88,10.56,1.43,15.73.11,1.1.33,2.2.55,3.3a4.6,4.6,0,0,0,3.19,3.3,28.61,28.61,0,0,0,6.16.66,5.77,5.77,0,0,0,1.87-.44,3,3,0,0,0,2.2-2.31,13.53,13.53,0,0,0,.22-3c-.22-3.3-.44-6.6-.77-9.9-.55-5.28-1.21-10.45-1.54-15.73-.44-5.83-1.43-11.66-2.09-17.49-.33-3-.44-5.94-.77-8.91-.33-4.18-.44-8.36-1-12.54-1-7-2.2-14.19-3.3-21.23a29.33,29.33,0,0,0-.77-3,5.45,5.45,0,0,0-3.74-4,18.31,18.31,0,0,0-5.28-1.21,83.49,83.49,0,0,0-13.86.44l-1.54.33a4,4,0,0,0-3.3,3.08,9.54,9.54,0,0,0-.55,3.08c-.33,4.73-.66,9.57-.88,14.41-.11,1.1,0,2.2-.11,3.3L188,731.69,186.8,742l-1,8.25-1.32,18.15-.44,4.62-.77,13.09C183.28,786.25,183.17,786.47,183.28,786.69Zm17.38-74.8a6.42,6.42,0,0,1,.88-2.42,3.24,3.24,0,0,1,5.39.22,7.18,7.18,0,0,1,.88,2.42l.88,6.71.33,4.4a8.5,8.5,0,0,1-.33,2.86,2.33,2.33,0,0,1-1.32,1.54,7.14,7.14,0,0,1-4.51.66,2.8,2.8,0,0,1-2.31-2.31,21.37,21.37,0,0,1-.22-2.64V719Z" transform="translate(-70.49 -687.78)"/><path class="cls-2" d="M235.64,720.14a71.84,71.84,0,0,1,.77-11.88,27.28,27.28,0,0,1,1.21-5.17,18.33,18.33,0,0,1,10.67-12.21,37.38,37.38,0,0,1,16.06-3.08,48.74,48.74,0,0,1,7.15.88,16.06,16.06,0,0,1,9.35,5.06l2.31,2.86.11.11,2.86,2.75a23.82,23.82,0,0,1,5.39,8.8h-.11a49.45,49.45,0,0,1,2.64,16.28c0,1-.11,2-.11,2.86v2.86a23.37,23.37,0,0,1-.66,3.41h-.11a8.17,8.17,0,0,1-6,5.72,29.54,29.54,0,0,1-8.25.66,8.77,8.77,0,0,1-5.39-2.42l-4-4a8.54,8.54,0,0,1-3.52-3.85l-.66-1.76v.44c0,1.65-.22,3.41-.22,5-.22,4.29-.44,8.47-.33,12.87a54.83,54.83,0,0,1-.44,6.49,53.5,53.5,0,0,0-.33,7c0,1-.11,2.09-.11,3.08,0,2.09,0,4,.11,6.05v1.76a10.4,10.4,0,0,0,3-3.19v.11a8.43,8.43,0,0,0,.66-1.65c.11-2.31.11-5.94.11-8.14v-2.09a12.66,12.66,0,0,1,.44-4.18,9.29,9.29,0,0,1,4.95-5.94,15.84,15.84,0,0,1,5.61-1,9.32,9.32,0,0,1,2.09.22c.11,0,.11.11.22.11a9.6,9.6,0,0,1,6.82,4.62l4,3.85a10,10,0,0,1,2.53,4.62,16,16,0,0,1,.66,3.3l.33,3.08a87.06,87.06,0,0,1,.66,11v.11a35.16,35.16,0,0,1-.88,8.47,18.47,18.47,0,0,1-5,8.91,30,30,0,0,1-15.4,8.69h-.11a40,40,0,0,1-8.8,1,38,38,0,0,1-4.18-.22,20.44,20.44,0,0,1-8.47-3.19,19.1,19.1,0,0,1-3.19-2.75L247.52,794a24.25,24.25,0,0,1-7.81-9.13,33.57,33.57,0,0,1-3.3-12.65l-.66-10.34c0-.88-.11-1.76-.11-2.64Zm5.5,38.94c.22,4.18.44,8.47.77,12.65a30.72,30.72,0,0,0,2.86,10.78,18.19,18.19,0,0,0,5.94,6.93,15.53,15.53,0,0,0,6.16,2.31,35.56,35.56,0,0,0,11.33-.66,24.81,24.81,0,0,0,12.87-7.26,13.1,13.1,0,0,0,3.52-6.38,33.87,33.87,0,0,0,.77-7.48,112.18,112.18,0,0,0-1-13.53,9.33,9.33,0,0,0-.44-2.42,4.45,4.45,0,0,0-4.07-3.63,3.27,3.27,0,0,0-1.1-.22,7.2,7.2,0,0,0-3.41.55,3.79,3.79,0,0,0-1.87,2.42,17.11,17.11,0,0,0-.22,4.73c0,2.75,0,5.61-.11,8.36a9.79,9.79,0,0,1-1.32,4.18,14,14,0,0,1-10.12,6.93,6.13,6.13,0,0,1-6.49-3.08,8.49,8.49,0,0,1-1.32-3.85,47.5,47.5,0,0,1-.55-6.82c-.11-2.09-.11-4.07-.11-6.16.11-3.63,0-7.15.44-10.78a54.09,54.09,0,0,0,.44-5.83c-.11-6.05.33-12.1.55-18a34.14,34.14,0,0,1,1.32-8.91,11.92,11.92,0,0,1,1.87-3.74,5.15,5.15,0,0,1,7.59-.66,8.07,8.07,0,0,1,2.42,3.3c.33,1.1.66,2.31.88,3.41l1.32,8a16.4,16.4,0,0,0,1,3.3,3.16,3.16,0,0,0,2.64,1.87,23.09,23.09,0,0,0,6.71-.55,3.23,3.23,0,0,0,2.42-2.31,12.75,12.75,0,0,0,.44-2c0-1.76.11-3.63.11-5.5a44.27,44.27,0,0,0-2.31-14.63,17.27,17.27,0,0,0-4.18-6.93,10.05,10.05,0,0,0-6-3.3,44.78,44.78,0,0,0-6.71-.88,30.53,30.53,0,0,0-13.64,2.64,12.17,12.17,0,0,0-7.59,8.58,29.69,29.69,0,0,0-1,4.51,62.2,62.2,0,0,0-.77,11.11Z" transform="translate(-70.49 -687.78)"/><path class="cls-2" d="M293.39,741.7c-.11-2.53-.22-4.73-.44-7.26l-.22-4.18v-1.32c0-.44-.11-.88-.11-1.43V700.89a28.06,28.06,0,0,1,.11-3.3c.77-4.18,3.3-7.15,8-7.7a11.37,11.37,0,0,0,2.42-.44l11.11-.66c2-.22,4.62-.22,6.82-.33.44,0,1-.11,1.43-.11,4.29.33,7.37,1.43,9.13,4.4l4.07,4.07c1.43,1.43,2.31,3.74,2.64,7.15.11,1.76.22,4,.22,5.83a14,14,0,0,1-.55,3.74c-1.1,4.29-4,6.6-8.36,7h-3.41l-2,.22c.22,0,.33.11.55.11a10.74,10.74,0,0,1,5.83,4.51l3.74,3.74a8.73,8.73,0,0,1,2.2,3.63,11.65,11.65,0,0,1,.55,2.09c.11,1.21.22,2.64.22,4.29,0,.77-.22,2.75-.33,4.51-.77,4.73-3.41,6.82-7.26,7.92h-.11a18.61,18.61,0,0,1-5.83.66h-.11c0,4.51.11,9.13.22,13.64l.22,6.71h1c4,.22,6.93,1.87,8.47,4.84l3.63,3.63a9.33,9.33,0,0,1,2.64,5.94c.11,2.31.11,4.51,0,6.71-.55,5.17-3.63,8-8.8,8.69a17,17,0,0,0-2.53.11l-4,.44c-1.54.22-3.74.33-5.17.44-3.19.11-6.82,0-10.12-.11a7.94,7.94,0,0,1-3.08-.55,9.06,9.06,0,0,1-3.52-2.2l-4-4a10.16,10.16,0,0,1-4.4-5.72,8.56,8.56,0,0,1-.44-2.31,31.14,31.14,0,0,1-.11-3.3l-.22-25.41Zm1.21,48.84h.11a.11.11,0,0,1-.11-.11Zm4.51-30.8v.44l.22,25.08a21.33,21.33,0,0,0,.11,2.64,8.81,8.81,0,0,0,.33,1.65,3.91,3.91,0,0,0,2.64,2.75,4.4,4.4,0,0,0,1.65.33c3.3.11,6.49.22,9.68.11s6.16-.66,9.24-.88a11.92,11.92,0,0,1,2-.11c2.53-.33,4.07-1.65,4.29-4a53.34,53.34,0,0,0,0-5.94c-.22-2.31-1.76-3.63-4.18-3.74h-1.54l-5.94-.33c-2.42-.33-3.52-1.32-3.74-3.74-.11-1.54-.22-3.08-.22-4.62l-.33-8.8c-.11-4.84-.22-9.68-.22-14.52a4.09,4.09,0,0,1,.22-2,2.69,2.69,0,0,1,2.2-2.2l2.31-.33a19.31,19.31,0,0,0,5.06-.44c2-.55,3.3-1.54,3.63-3.63a30.05,30.05,0,0,0,0-7.7,2,2,0,0,0-.22-.77,3.91,3.91,0,0,0-3.08-2.86,8.94,8.94,0,0,0-3.41-.22,13.23,13.23,0,0,1-4.18-.11,2.71,2.71,0,0,1-2.09-2.09,13.85,13.85,0,0,1-.44-3c0-1.54,0-3.08.11-4.62a25,25,0,0,1,.22-2.86,3.19,3.19,0,0,1,3-3c1.54-.22,3-.33,4.4-.44h2.86a4,4,0,0,0,4-3.52,6.88,6.88,0,0,0,.33-2.09c0-1.87-.11-3.74-.22-5.5-.33-3.74-2.09-4.73-5.28-5h-.22c-2.42.11-5,.22-7.48.44l-10.89.66a22.14,22.14,0,0,0-2.64.44,3.4,3.4,0,0,0-3,3.08,17.12,17.12,0,0,0-.11,2.42v23.76c0,1.87.11,3.74.11,5.61.22,3.74.55,7.48.66,11.22Z" transform="translate(-70.49 -687.78)"/></g></svg>